<svg height="480pt" viewBox="0 -40 480.00001 480" width="480pt" xmlns="http://www.w3.org/2000/svg"><g fill="#9bc9ff"><path d="m8 184v96l48-16v-64zm0 0"/><path d="m360 240h32v80h-32zm0 0"/><path d="m216 80c0 39.765625-32.234375 72-72 72s-72-32.234375-72-72 32.234375-72 72-72 72 32.234375 72 72zm0 0"/><path d="m344 104c0 26.507812-21.492188 48-48 48s-48-21.492188-48-48 21.492188-48 48-48 48 21.492188 48 48zm0 0"/><path d="m128 216h160v128h-160zm0 0"/></g><path d="m476.488281 193.375c-2.199219-1.484375-4.992187-1.785156-7.457031-.800781l-80 32c-3.035156 1.214843-5.027344 4.15625-5.03125 7.425781h-16v-48c0-13.253906-10.746094-24-24-24h-272c-13.253906 0-24 10.746094-24 24v4.894531l-37.472656-12.488281c-2.4375-.8125-5.121094-.402344-7.207032 1.101562-2.085937 1.503907-3.320312 3.921876-3.320312 6.492188v96c0 4.417969 3.582031 8 8 8 .859375 0 1.710938-.136719 2.527344-.40625l37.472656-12.488281v100.894531c0 13.253906 10.746094 24 24 24h272c13.253906 0 24-10.746094 24-24v-48h16c0 3.273438 1.992188 6.21875 5.03125 7.433594l80 32c2.464844.984375 5.257812.683594 7.457031-.800782 2.199219-1.492187 3.515625-3.976562 3.511719-6.632812v-160c0-2.652344-1.316406-5.136719-3.511719-6.625zm-428.488281 64.855469-32 10.671875v-73.804688l32 10.671875zm304 117.769531c0 4.417969-3.582031 8-8 8h-272c-4.417969 0-8-3.582031-8-8v-192c0-4.417969 3.582031-8 8-8h272c4.417969 0 8 3.582031 8 8zm32-64h-16v-64h16zm80 36.183594-64-25.597656v-85.171876l64-25.597656zm0 0" fill="#57a4ff"/><path d="m224 80c0-44.183594-35.816406-80-80-80s-80 35.816406-80 80 35.816406 80 80 80c44.164062-.046875 79.953125-35.835938 80-80zm-80 64c-35.347656 0-64-28.652344-64-64s28.652344-64 64-64 64 28.652344 64 64c-.039062 35.328125-28.671875 63.960938-64 64zm0 0" fill="#57a4ff"/><path d="m352 104c0-30.929688-25.070312-56-56-56s-56 25.070312-56 56 25.070312 56 56 56c30.914062-.035156 55.964844-25.085938 56-56zm-56 40c-22.089844 0-40-17.910156-40-40s17.910156-40 40-40 40 17.910156 40 40c-.027344 22.082031-17.917969 39.972656-40 40zm0 0" fill="#57a4ff"/><path d="m288 208h-160c-4.417969 0-8 3.582031-8 8v128c0 4.417969 3.582031 8 8 8h160c4.417969 0 8-3.582031 8-8v-128c0-4.417969-3.582031-8-8-8zm-8 128h-144v-112h144zm0 0" fill="#57a4ff"/></svg>